%TF.GenerationSoftware,KiCad,Pcbnew,9.0.4*%
%TF.CreationDate,2025-11-10T13:09:04+01:00*%
%TF.ProjectId,CAN_Transceiver,43414e5f-5472-4616-9e73-636569766572,rev?*%
%TF.SameCoordinates,Original*%
%TF.FileFunction,Copper,L1,Top*%
%TF.FilePolarity,Positive*%
%FSLAX46Y46*%
G04 Gerber Fmt 4.6, Leading zero omitted, Abs format (unit mm)*
G04 Created by KiCad (PCBNEW 9.0.4) date 2025-11-10 13:09:04*
%MOMM*%
%LPD*%
G01*
G04 APERTURE LIST*
G04 Aperture macros list*
%AMRoundRect*
0 Rectangle with rounded corners*
0 $1 Rounding radius*
0 $2 $3 $4 $5 $6 $7 $8 $9 X,Y pos of 4 corners*
0 Add a 4 corners polygon primitive as box body*
4,1,4,$2,$3,$4,$5,$6,$7,$8,$9,$2,$3,0*
0 Add four circle primitives for the rounded corners*
1,1,$1+$1,$2,$3*
1,1,$1+$1,$4,$5*
1,1,$1+$1,$6,$7*
1,1,$1+$1,$8,$9*
0 Add four rect primitives between the rounded corners*
20,1,$1+$1,$2,$3,$4,$5,0*
20,1,$1+$1,$4,$5,$6,$7,0*
20,1,$1+$1,$6,$7,$8,$9,0*
20,1,$1+$1,$8,$9,$2,$3,0*%
G04 Aperture macros list end*
%TA.AperFunction,ComponentPad*%
%ADD10C,1.700000*%
%TD*%
%TA.AperFunction,ComponentPad*%
%ADD11R,1.700000X1.700000*%
%TD*%
%TA.AperFunction,SMDPad,CuDef*%
%ADD12RoundRect,0.243750X-0.506250X0.243750X-0.506250X-0.243750X0.506250X-0.243750X0.506250X0.243750X0*%
%TD*%
%TA.AperFunction,SMDPad,CuDef*%
%ADD13RoundRect,0.150000X-0.825000X-0.150000X0.825000X-0.150000X0.825000X0.150000X-0.825000X0.150000X0*%
%TD*%
%TA.AperFunction,Conductor*%
%ADD14C,0.500000*%
%TD*%
G04 APERTURE END LIST*
D10*
%TO.P,J1,4,Pin_4*%
%TO.N,Net-(J1-Pin_4)*%
X118000000Y-99370000D03*
%TO.P,J1,3,Pin_3*%
%TO.N,Net-(J1-Pin_3)*%
X118000000Y-96830000D03*
%TO.P,J1,2,Pin_2*%
%TO.N,+3.3V*%
X118000000Y-94290000D03*
D11*
%TO.P,J1,1,Pin_1*%
%TO.N,GND*%
X118000000Y-91750000D03*
%TD*%
D12*
%TO.P,R2,2*%
%TO.N,Net-(J2-Pin_1)*%
X132250000Y-96412500D03*
%TO.P,R2,1*%
%TO.N,Net-(J2-Pin_2)*%
X132250000Y-94587500D03*
%TD*%
D13*
%TO.P,U2,1,D*%
%TO.N,Net-(J1-Pin_3)*%
X123775000Y-93595000D03*
%TO.P,U2,2,GND*%
%TO.N,GND*%
X123775000Y-94865000D03*
%TO.P,U2,3,VCC*%
%TO.N,+3.3V*%
X123775000Y-96135000D03*
%TO.P,U2,4,R*%
%TO.N,Net-(J1-Pin_4)*%
X123775000Y-97405000D03*
%TO.P,U2,5,Vref*%
%TO.N,unconnected-(U2-Vref-Pad5)*%
X128725000Y-97405000D03*
%TO.P,U2,6,CANL*%
%TO.N,Net-(J2-Pin_1)*%
X128725000Y-96135000D03*
%TO.P,U2,7,CANH*%
%TO.N,Net-(J2-Pin_2)*%
X128725000Y-94865000D03*
%TO.P,U2,8,Rs*%
%TO.N,unconnected-(U2-Rs-Pad8)*%
X128725000Y-93595000D03*
%TD*%
D10*
%TO.P,J2,1,Pin_1*%
%TO.N,Net-(J2-Pin_1)*%
X136750000Y-97000000D03*
%TO.P,J2,2,Pin_2*%
%TO.N,Net-(J2-Pin_2)*%
X136750000Y-94460000D03*
%TD*%
D14*
%TO.N,Net-(J1-Pin_3)*%
X118000000Y-96750000D02*
X121155000Y-93595000D01*
X118000000Y-96830000D02*
X118000000Y-96750000D01*
X121155000Y-93595000D02*
X123775000Y-93595000D01*
%TO.N,+3.3V*%
X126000000Y-97000000D02*
X125135000Y-96135000D01*
X125135000Y-96135000D02*
X123775000Y-96135000D01*
X126000000Y-100000000D02*
X126000000Y-97000000D01*
X116500000Y-101500000D02*
X124500000Y-101500000D01*
X115500000Y-100500000D02*
X116500000Y-101500000D01*
X115500000Y-96790000D02*
X115500000Y-100500000D01*
X118000000Y-94290000D02*
X115500000Y-96790000D01*
X124500000Y-101500000D02*
X126000000Y-100000000D01*
%TO.N,Net-(J2-Pin_2)*%
X136622500Y-94587500D02*
X136750000Y-94460000D01*
X132250000Y-94587500D02*
X136622500Y-94587500D01*
%TO.N,Net-(J2-Pin_1)*%
X132250000Y-96412500D02*
X136162500Y-96412500D01*
X136162500Y-96412500D02*
X136750000Y-97000000D01*
X128725000Y-96135000D02*
X131972500Y-96135000D01*
X131972500Y-96135000D02*
X132250000Y-96412500D01*
%TO.N,Net-(J2-Pin_2)*%
X128725000Y-94865000D02*
X131972500Y-94865000D01*
X131972500Y-94865000D02*
X132250000Y-94587500D01*
%TO.N,Net-(J1-Pin_4)*%
X119965000Y-97405000D02*
X123775000Y-97405000D01*
X118000000Y-99370000D02*
X119965000Y-97405000D01*
%TD*%
%TA.AperFunction,Conductor*%
%TO.N,GND*%
G36*
X116752591Y-89770185D02*
G01*
X116798346Y-89822989D01*
X116808290Y-89892147D01*
X116779265Y-89955703D01*
X116742963Y-89984409D01*
X116596870Y-90060721D01*
X116439246Y-90189246D01*
X116310721Y-90346870D01*
X116216557Y-90527138D01*
X116160609Y-90722671D01*
X116160608Y-90722674D01*
X116150000Y-90841999D01*
X116150000Y-90900000D01*
X119850000Y-90900000D01*
X119850000Y-90842002D01*
X119849999Y-90841999D01*
X119839391Y-90722674D01*
X119839390Y-90722671D01*
X119783442Y-90527138D01*
X119689278Y-90346870D01*
X119560753Y-90189246D01*
X119403129Y-90060721D01*
X119257037Y-89984409D01*
X119206729Y-89935922D01*
X119190622Y-89867935D01*
X119213828Y-89802031D01*
X119268981Y-89759136D01*
X119314448Y-89750500D01*
X138875500Y-89750500D01*
X138942539Y-89770185D01*
X138988294Y-89822989D01*
X138999500Y-89874500D01*
X138999500Y-101625500D01*
X138979815Y-101692539D01*
X138927011Y-101738294D01*
X138875500Y-101749500D01*
X125611230Y-101749500D01*
X125544191Y-101729815D01*
X125498436Y-101677011D01*
X125488492Y-101607853D01*
X125517517Y-101544297D01*
X125523549Y-101537819D01*
X126582948Y-100478419D01*
X126582947Y-100478419D01*
X126582951Y-100478416D01*
X126665084Y-100355495D01*
X126721658Y-100218913D01*
X126750500Y-100073918D01*
X126750500Y-99926083D01*
X126750500Y-96926082D01*
X126742428Y-96885500D01*
X126721659Y-96781088D01*
X126678164Y-96676083D01*
X126665084Y-96644505D01*
X126632186Y-96595270D01*
X126598864Y-96545398D01*
X126582956Y-96521589D01*
X126582952Y-96521584D01*
X125678035Y-95616667D01*
X125644550Y-95555344D01*
X125649534Y-95485652D01*
X125652282Y-95478899D01*
X125695055Y-95382028D01*
X125695058Y-95382017D01*
X125743852Y-95174558D01*
X125744516Y-95165000D01*
X121805484Y-95165000D01*
X121806147Y-95174558D01*
X121854941Y-95382017D01*
X121854946Y-95382032D01*
X121941028Y-95576990D01*
X122061474Y-95752820D01*
X122212174Y-95903520D01*
X122212184Y-95903528D01*
X122245576Y-95926402D01*
X122289759Y-95980527D01*
X122299500Y-96028702D01*
X122299500Y-96350701D01*
X122302401Y-96387567D01*
X122302402Y-96387573D01*
X122333876Y-96495905D01*
X122333677Y-96565775D01*
X122295735Y-96624445D01*
X122232096Y-96653288D01*
X122214800Y-96654500D01*
X119891076Y-96654500D01*
X119862242Y-96660234D01*
X119862243Y-96660235D01*
X119746093Y-96683339D01*
X119746089Y-96683340D01*
X119672191Y-96713950D01*
X119672187Y-96713952D01*
X119667045Y-96716082D01*
X119609505Y-96739916D01*
X119567482Y-96767995D01*
X119561989Y-96771665D01*
X119561978Y-96771671D01*
X119538666Y-96787248D01*
X119471989Y-96808124D01*
X119404609Y-96789638D01*
X119357920Y-96737658D01*
X119347305Y-96703542D01*
X119344171Y-96683757D01*
X119334777Y-96624445D01*
X119324445Y-96559208D01*
X119333400Y-96489914D01*
X119359234Y-96452132D01*
X121429549Y-94381819D01*
X121456476Y-94367115D01*
X121482295Y-94350523D01*
X121488495Y-94349631D01*
X121490872Y-94348334D01*
X121517230Y-94345500D01*
X121698977Y-94345500D01*
X121766016Y-94365185D01*
X121811771Y-94417989D01*
X121821715Y-94487147D01*
X121819683Y-94497889D01*
X121806147Y-94555439D01*
X121806147Y-94555440D01*
X121805483Y-94564999D01*
X121805484Y-94565000D01*
X125744516Y-94565000D01*
X125744516Y-94564999D01*
X125743852Y-94555441D01*
X125695058Y-94347982D01*
X125695053Y-94347967D01*
X125608971Y-94153009D01*
X125488527Y-93977182D01*
X125337820Y-93826474D01*
X125337817Y-93826472D01*
X125304422Y-93803595D01*
X125260240Y-93749468D01*
X125250500Y-93701296D01*
X125250500Y-93379313D01*
X125250499Y-93379298D01*
X127249500Y-93379298D01*
X127249500Y-93810701D01*
X127252401Y-93847567D01*
X127252402Y-93847573D01*
X127298254Y-94005393D01*
X127298255Y-94005396D01*
X127298256Y-94005398D01*
X127314946Y-94033620D01*
X127381917Y-94146862D01*
X127386702Y-94153031D01*
X127384256Y-94154927D01*
X127410857Y-94203642D01*
X127405873Y-94273334D01*
X127385069Y-94305703D01*
X127386702Y-94306969D01*
X127381917Y-94313137D01*
X127298255Y-94454603D01*
X127298254Y-94454606D01*
X127252402Y-94612426D01*
X127252401Y-94612432D01*
X127249500Y-94649298D01*
X127249500Y-95080701D01*
X127252401Y-95117567D01*
X127252402Y-95117573D01*
X127298254Y-95275393D01*
X127298255Y-95275396D01*
X127381917Y-95416862D01*
X127386702Y-95423031D01*
X127384256Y-95424927D01*
X127410857Y-95473642D01*
X127405873Y-95543334D01*
X127385069Y-95575703D01*
X127386702Y-95576969D01*
X127381917Y-95583137D01*
X127298255Y-95724603D01*
X127298254Y-95724606D01*
X127252402Y-95882426D01*
X127252401Y-95882432D01*
X127249500Y-95919298D01*
X127249500Y-96350701D01*
X127252401Y-96387567D01*
X127252402Y-96387573D01*
X127298254Y-96545393D01*
X127298255Y-96545396D01*
X127381917Y-96686862D01*
X127386702Y-96693031D01*
X127384256Y-96694927D01*
X127410857Y-96743642D01*
X127405873Y-96813334D01*
X127385069Y-96845703D01*
X127386702Y-96846969D01*
X127381917Y-96853137D01*
X127298255Y-96994603D01*
X127298254Y-96994606D01*
X127252402Y-97152426D01*
X127252401Y-97152432D01*
X127249500Y-97189298D01*
X127249500Y-97620701D01*
X127252401Y-97657567D01*
X127252402Y-97657573D01*
X127298254Y-97815393D01*
X127298255Y-97815396D01*
X127381917Y-97956862D01*
X127381923Y-97956870D01*
X127498129Y-98073076D01*
X127498133Y-98073079D01*
X127498135Y-98073081D01*
X127639602Y-98156744D01*
X127645075Y-98158334D01*
X127797426Y-98202597D01*
X127797429Y-98202597D01*
X127797431Y-98202598D01*
X127834306Y-98205500D01*
X127834314Y-98205500D01*
X129615686Y-98205500D01*
X129615694Y-98205500D01*
X129652569Y-98202598D01*
X129652571Y-98202597D01*
X129652573Y-98202597D01*
X129759790Y-98171447D01*
X129810398Y-98156744D01*
X129951865Y-98073081D01*
X130068081Y-97956865D01*
X130151744Y-97815398D01*
X130197598Y-97657569D01*
X130200500Y-97620694D01*
X130200500Y-97189306D01*
X130197598Y-97152431D01*
X130197597Y-97152426D01*
X130166124Y-97044095D01*
X130166323Y-96974225D01*
X130204265Y-96915555D01*
X130267904Y-96886712D01*
X130285200Y-96885500D01*
X130946127Y-96885500D01*
X131013166Y-96905185D01*
X131058921Y-96957989D01*
X131063832Y-96970493D01*
X131064637Y-96972924D01*
X131064639Y-96972928D01*
X131155971Y-97120999D01*
X131155974Y-97121003D01*
X131278996Y-97244025D01*
X131279000Y-97244028D01*
X131427066Y-97335357D01*
X131427069Y-97335358D01*
X131427075Y-97335362D01*
X131592225Y-97390087D01*
X131694152Y-97400500D01*
X131694157Y-97400500D01*
X132805843Y-97400500D01*
X132805848Y-97400500D01*
X132907775Y-97390087D01*
X133072925Y-97335362D01*
X133221003Y-97244026D01*
X133265710Y-97199319D01*
X133327033Y-97165834D01*
X133353391Y-97163000D01*
X135302577Y-97163000D01*
X135369616Y-97182685D01*
X135415371Y-97235489D01*
X135425050Y-97267602D01*
X135432754Y-97316243D01*
X135498444Y-97518416D01*
X135594951Y-97707820D01*
X135719890Y-97879786D01*
X135870213Y-98030109D01*
X136042179Y-98155048D01*
X136042181Y-98155049D01*
X136042184Y-98155051D01*
X136231588Y-98251557D01*
X136433757Y-98317246D01*
X136643713Y-98350500D01*
X136643714Y-98350500D01*
X136856286Y-98350500D01*
X136856287Y-98350500D01*
X137066243Y-98317246D01*
X137268412Y-98251557D01*
X137457816Y-98155051D01*
X137508203Y-98118443D01*
X137629786Y-98030109D01*
X137629788Y-98030106D01*
X137629792Y-98030104D01*
X137780104Y-97879792D01*
X137780106Y-97879788D01*
X137780109Y-97879786D01*
X137905048Y-97707820D01*
X137905047Y-97707820D01*
X137905051Y-97707816D01*
X138001557Y-97518412D01*
X138067246Y-97316243D01*
X138100500Y-97106287D01*
X138100500Y-96893713D01*
X138067246Y-96683757D01*
X138001557Y-96481588D01*
X137905051Y-96292184D01*
X137905049Y-96292181D01*
X137905048Y-96292179D01*
X137780109Y-96120213D01*
X137629786Y-95969890D01*
X137457820Y-95844951D01*
X137457115Y-95844591D01*
X137449054Y-95840485D01*
X137398259Y-95792512D01*
X137381463Y-95724692D01*
X137403999Y-95658556D01*
X137449054Y-95619515D01*
X137457816Y-95615051D01*
X137511974Y-95575703D01*
X137629786Y-95490109D01*
X137629788Y-95490106D01*
X137629792Y-95490104D01*
X137780104Y-95339792D01*
X137780106Y-95339788D01*
X137780109Y-95339786D01*
X137905048Y-95167820D01*
X137905047Y-95167820D01*
X137905051Y-95167816D01*
X138001557Y-94978412D01*
X138067246Y-94776243D01*
X138100500Y-94566287D01*
X138100500Y-94353713D01*
X138067246Y-94143757D01*
X138001557Y-93941588D01*
X137905051Y-93752184D01*
X137905049Y-93752181D01*
X137905048Y-93752179D01*
X137780109Y-93580213D01*
X137629786Y-93429890D01*
X137457820Y-93304951D01*
X137268414Y-93208444D01*
X137268413Y-93208443D01*
X137268412Y-93208443D01*
X137066243Y-93142754D01*
X137066241Y-93142753D01*
X137066240Y-93142753D01*
X136904957Y-93117208D01*
X136856287Y-93109500D01*
X136643713Y-93109500D01*
X136595042Y-93117208D01*
X136433760Y-93142753D01*
X136231585Y-93208444D01*
X136042179Y-93304951D01*
X135870213Y-93429890D01*
X135719890Y-93580213D01*
X135594951Y-93752179D01*
X135586232Y-93769293D01*
X135538258Y-93820090D01*
X135475746Y-93837000D01*
X133353391Y-93837000D01*
X133286352Y-93817315D01*
X133265710Y-93800681D01*
X133221003Y-93755974D01*
X133220999Y-93755971D01*
X133072933Y-93664642D01*
X133072927Y-93664639D01*
X133072925Y-93664638D01*
X133072922Y-93664637D01*
X132907776Y-93609913D01*
X132805855Y-93599500D01*
X132805848Y-93599500D01*
X131694152Y-93599500D01*
X131694144Y-93599500D01*
X131592223Y-93609913D01*
X131427077Y-93664637D01*
X131427066Y-93664642D01*
X131279000Y-93755971D01*
X131278996Y-93755974D01*
X131155974Y-93878996D01*
X131155971Y-93879000D01*
X131064639Y-94027071D01*
X131064637Y-94027075D01*
X131063832Y-94029507D01*
X131062827Y-94030958D01*
X131061586Y-94033620D01*
X131061131Y-94033407D01*
X131024058Y-94086951D01*
X130959542Y-94113772D01*
X130946127Y-94114500D01*
X130285200Y-94114500D01*
X130218161Y-94094815D01*
X130172406Y-94042011D01*
X130162462Y-93972853D01*
X130166124Y-93955905D01*
X130197597Y-93847573D01*
X130197598Y-93847567D01*
X130199258Y-93826472D01*
X130200500Y-93810694D01*
X130200500Y-93379306D01*
X130197598Y-93342431D01*
X130186708Y-93304949D01*
X130158671Y-93208444D01*
X130151744Y-93184602D01*
X130068081Y-93043135D01*
X130068079Y-93043133D01*
X130068076Y-93043129D01*
X129951870Y-92926923D01*
X129951862Y-92926917D01*
X129810396Y-92843255D01*
X129810393Y-92843254D01*
X129652573Y-92797402D01*
X129652567Y-92797401D01*
X129615701Y-92794500D01*
X129615694Y-92794500D01*
X127834306Y-92794500D01*
X127834298Y-92794500D01*
X127797432Y-92797401D01*
X127797426Y-92797402D01*
X127639606Y-92843254D01*
X127639603Y-92843255D01*
X127498137Y-92926917D01*
X127498129Y-92926923D01*
X127381923Y-93043129D01*
X127381917Y-93043137D01*
X127298255Y-93184603D01*
X127298254Y-93184606D01*
X127252402Y-93342426D01*
X127252401Y-93342432D01*
X127249500Y-93379298D01*
X125250499Y-93379298D01*
X125247598Y-93342432D01*
X125247597Y-93342426D01*
X125208671Y-93208444D01*
X125201744Y-93184602D01*
X125118081Y-93043135D01*
X125118079Y-93043133D01*
X125118076Y-93043129D01*
X125001870Y-92926923D01*
X125001862Y-92926917D01*
X124860396Y-92843255D01*
X124860393Y-92843254D01*
X124702573Y-92797402D01*
X124702567Y-92797401D01*
X124665701Y-92794500D01*
X124665694Y-92794500D01*
X122884306Y-92794500D01*
X122884298Y-92794500D01*
X122847432Y-92797401D01*
X122847426Y-92797402D01*
X122702267Y-92839576D01*
X122667672Y-92844500D01*
X121081080Y-92844500D01*
X120936092Y-92873340D01*
X120936086Y-92873342D01*
X120799508Y-92929914D01*
X120799496Y-92929921D01*
X120750269Y-92962813D01*
X120676588Y-93012044D01*
X120676580Y-93012050D01*
X119543697Y-94144934D01*
X119482374Y-94178419D01*
X119412682Y-94173435D01*
X119356749Y-94131563D01*
X119333543Y-94076651D01*
X119322257Y-94005396D01*
X119317246Y-93973757D01*
X119251557Y-93771588D01*
X119205416Y-93681032D01*
X119192521Y-93612365D01*
X119218797Y-93547625D01*
X119258492Y-93514830D01*
X119403128Y-93439280D01*
X119560753Y-93310753D01*
X119689278Y-93153129D01*
X119783442Y-92972861D01*
X119839390Y-92777328D01*
X119839391Y-92777325D01*
X119849999Y-92658000D01*
X119850000Y-92657998D01*
X119850000Y-92600000D01*
X116150000Y-92600000D01*
X116150000Y-92658000D01*
X116160608Y-92777325D01*
X116160609Y-92777328D01*
X116216557Y-92972861D01*
X116310721Y-93153129D01*
X116439246Y-93310753D01*
X116596870Y-93439278D01*
X116741508Y-93514830D01*
X116791815Y-93563316D01*
X116807923Y-93631304D01*
X116794582Y-93681033D01*
X116748445Y-93771582D01*
X116682753Y-93973760D01*
X116649500Y-94183713D01*
X116649500Y-94396291D01*
X116664616Y-94491726D01*
X116655662Y-94561020D01*
X116629824Y-94598806D01*
X115213635Y-96014995D01*
X115152312Y-96048480D01*
X115082620Y-96043496D01*
X115026687Y-96001624D01*
X115002270Y-95936160D01*
X115001955Y-95927383D01*
X115000555Y-91684174D01*
X117500000Y-91684174D01*
X117500000Y-91815826D01*
X117534075Y-91942993D01*
X117599901Y-92057007D01*
X117692993Y-92150099D01*
X117807007Y-92215925D01*
X117934174Y-92250000D01*
X118065826Y-92250000D01*
X118192993Y-92215925D01*
X118307007Y-92150099D01*
X118400099Y-92057007D01*
X118465925Y-91942993D01*
X118500000Y-91815826D01*
X118500000Y-91684174D01*
X118465925Y-91557007D01*
X118400099Y-91442993D01*
X118307007Y-91349901D01*
X118192993Y-91284075D01*
X118065826Y-91250000D01*
X117934174Y-91250000D01*
X117807007Y-91284075D01*
X117692993Y-91349901D01*
X117599901Y-91442993D01*
X117534075Y-91557007D01*
X117500000Y-91684174D01*
X115000555Y-91684174D01*
X115000500Y-91516129D01*
X115000500Y-89874500D01*
X115020185Y-89807461D01*
X115072989Y-89761706D01*
X115124500Y-89750500D01*
X116685552Y-89750500D01*
X116752591Y-89770185D01*
G37*
%TD.AperFunction*%
%TD*%
M02*
