G04 Generated by Ultiboard 14.2 *
%FSLAX34Y34*%
%MOMM*%

%ADD10C,0.0001*%
%ADD11C,0.3000*%
%ADD12C,0.3300*%
%ADD13C,0.4000*%
%ADD14R,0.9500X1.0000*%
%ADD15R,0.6000X1.5500*%
%ADD16R,1.4500X1.1500*%
%ADD17R,1.0000X0.9500*%
%ADD18R,1.1000X0.6000*%
%ADD19R,2.0000X2.0000*%
%ADD20R,1.3000X2.0000*%
%ADD21C,1.2000*%


G04 ColorRGB 00FF00 for the following layer *
%LNCopper Top*%
%LPD*%
G54D10*
G36*
X172720Y-381898D02*
X172720Y-381898D01*
X172720Y-369198D01*
X142240Y-369198D01*
X142240Y-381898D01*
X172720Y-381898D01*
D02*
G37*
G36*
X411480Y-25400D02*
X411480Y-25400D01*
X411480Y-38100D01*
X441960Y-38100D01*
X441960Y-25400D01*
X411480Y-25400D01*
D02*
G37*
G36*
X134040Y-17200D02*
X134040Y-17200D01*
X134040Y-29900D01*
X164520Y-29900D01*
X164520Y-17200D01*
X134040Y-17200D01*
D02*
G37*
G36*
X254000Y-381898D02*
X254000Y-381898D01*
X254000Y-369198D01*
X281940Y-369198D01*
X281940Y-381898D01*
X254000Y-381898D01*
D02*
G37*
G36*
X330200Y-25400D02*
X330200Y-25400D01*
X330200Y-38100D01*
X302260Y-38100D01*
X302260Y-25400D01*
X330200Y-25400D01*
D02*
G37*
G36*
X52760Y-17200D02*
X52760Y-17200D01*
X52760Y-29900D01*
X24820Y-29900D01*
X24820Y-17200D01*
X52760Y-17200D01*
D02*
G37*
G36*
X200660Y-331098D02*
X200660Y-331098D01*
X200660Y-308238D01*
X193040Y-308238D01*
X193040Y-331098D01*
X200660Y-331098D01*
D02*
G37*
G36*
X231140Y-330200D02*
X231140Y-330200D01*
X231140Y-307340D01*
X223520Y-307340D01*
X223520Y-330200D01*
X231140Y-330200D01*
D02*
G37*
G36*
X353060Y-76200D02*
X353060Y-76200D01*
X353060Y-99060D01*
X360680Y-99060D01*
X360680Y-76200D01*
X353060Y-76200D01*
D02*
G37*
G36*
X383540Y-76200D02*
X383540Y-76200D01*
X383540Y-99060D01*
X391160Y-99060D01*
X391160Y-76200D01*
X383540Y-76200D01*
D02*
G37*
G36*
X75620Y-68000D02*
X75620Y-68000D01*
X75620Y-90860D01*
X83240Y-90860D01*
X83240Y-68000D01*
X75620Y-68000D01*
D02*
G37*
G36*
X106100Y-68000D02*
X106100Y-68000D01*
X106100Y-90860D01*
X113720Y-90860D01*
X113720Y-68000D01*
X106100Y-68000D01*
D02*
G37*
G54D11*
X172720Y-381898D02*
X172720Y-369198D01*
X142240Y-369198D01*
X142240Y-381898D01*
X172720Y-381898D01*
X254000Y-381898D02*
X254000Y-369198D01*
X281940Y-369198D01*
X281940Y-381898D01*
X254000Y-381898D01*
X200660Y-331098D02*
X200660Y-308238D01*
X193040Y-308238D01*
X193040Y-331098D01*
X200660Y-331098D01*
X231140Y-330200D02*
X231140Y-307340D01*
X223520Y-307340D01*
X223520Y-330200D01*
X231140Y-330200D01*
X353060Y-76200D02*
X353060Y-99060D01*
X360680Y-99060D01*
X360680Y-76200D01*
X353060Y-76200D01*
X383540Y-76200D02*
X383540Y-99060D01*
X391160Y-99060D01*
X391160Y-76200D01*
X383540Y-76200D01*
X75620Y-68000D02*
X75620Y-90860D01*
X83240Y-90860D01*
X83240Y-68000D01*
X75620Y-68000D01*
X106100Y-68000D02*
X106100Y-90860D01*
X113720Y-90860D01*
X113720Y-68000D01*
X106100Y-68000D01*
X330200Y-25400D02*
X330200Y-38100D01*
X302260Y-38100D01*
X302260Y-25400D01*
X330200Y-25400D01*
X411480Y-25400D02*
X411480Y-38100D01*
X441960Y-38100D01*
X441960Y-25400D01*
X411480Y-25400D01*
X52760Y-17200D02*
X52760Y-29900D01*
X24820Y-29900D01*
X24820Y-17200D01*
X52760Y-17200D01*
X134040Y-17200D02*
X134040Y-29900D01*
X164520Y-29900D01*
X164520Y-17200D01*
X134040Y-17200D01*
G36*
X200660Y-331098D02*
X200660Y-331098D01*
X200660Y-308238D01*
X193040Y-308238D01*
X193040Y-331098D01*
X200660Y-331098D01*
D02*
G37*
X200660Y-308238D01*
X193040Y-308238D01*
X193040Y-331098D01*
X200660Y-331098D01*
G36*
X231140Y-330200D02*
X231140Y-330200D01*
X231140Y-307340D01*
X223520Y-307340D01*
X223520Y-330200D01*
X231140Y-330200D01*
D02*
G37*
X231140Y-307340D01*
X223520Y-307340D01*
X223520Y-330200D01*
X231140Y-330200D01*
X172720Y-218440D02*
X165100Y-226060D01*
X177800Y-218440D02*
X172720Y-218440D01*
G36*
X353060Y-76200D02*
X353060Y-76200D01*
X353060Y-99060D01*
X360680Y-99060D01*
X360680Y-76200D01*
X353060Y-76200D01*
D02*
G37*
X353060Y-99060D01*
X360680Y-99060D01*
X360680Y-76200D01*
X353060Y-76200D01*
G36*
X383540Y-76200D02*
X383540Y-76200D01*
X383540Y-99060D01*
X391160Y-99060D01*
X391160Y-76200D01*
X383540Y-76200D01*
D02*
G37*
X383540Y-99060D01*
X391160Y-99060D01*
X391160Y-76200D01*
X383540Y-76200D01*
G36*
X75620Y-68000D02*
X75620Y-68000D01*
X75620Y-90860D01*
X83240Y-90860D01*
X83240Y-68000D01*
X75620Y-68000D01*
D02*
G37*
X75620Y-90860D01*
X83240Y-90860D01*
X83240Y-68000D01*
X75620Y-68000D01*
G36*
X106100Y-68000D02*
X106100Y-68000D01*
X106100Y-90860D01*
X113720Y-90860D01*
X113720Y-68000D01*
X106100Y-68000D01*
D02*
G37*
X106100Y-90860D01*
X113720Y-90860D01*
X113720Y-68000D01*
X106100Y-68000D01*
X149480Y-231140D02*
X142240Y-231140D01*
X68280Y-155020D02*
X66040Y-152780D01*
X337440Y-342900D02*
X317880Y-342900D01*
X387350Y-249860D02*
X387350Y-260350D01*
X395860Y-268860D01*
X416560Y-268860D01*
X364490Y-141350D02*
X360680Y-137540D01*
X360680Y-139700D01*
X350190Y-210820D02*
X333120Y-210820D01*
X351790Y-212420D02*
X350190Y-210820D01*
X386080Y-137540D02*
X383160Y-137540D01*
X374650Y-313690D02*
X374650Y-290830D01*
X374650Y-313690D02*
X365760Y-322580D01*
X380620Y-284860D02*
X374650Y-290830D01*
X365760Y-322580D02*
X358520Y-322580D01*
X380620Y-284860D02*
X416560Y-284860D01*
X358520Y-322580D02*
X358520Y-337820D01*
X353440Y-342900D01*
X416560Y-183260D02*
X416560Y-185420D01*
X408560Y-205740D02*
X408560Y-208660D01*
X377190Y-225170D02*
X383160Y-231140D01*
X380620Y-233680D02*
X383160Y-231140D01*
X351790Y-158420D02*
X346380Y-158420D01*
X345440Y-157480D01*
X406400Y-304800D02*
X400990Y-304800D01*
X400050Y-303860D01*
X245110Y-244780D02*
X245110Y-222250D01*
X226360Y-220980D02*
X246380Y-220980D01*
X245110Y-222250D02*
X246380Y-220980D01*
X94280Y-180340D02*
X114300Y-180340D01*
X284546Y-104370D02*
X290786Y-98130D01*
X280626Y-104370D02*
X284546Y-104370D01*
X290786Y-98130D02*
X298026Y-105370D01*
X300946Y-105370D01*
X152400Y-53340D02*
X159220Y-60160D01*
X162560Y-60160D01*
X144580Y-61160D02*
X152400Y-53340D01*
X142240Y-61160D02*
X144580Y-61160D01*
X84940Y-208650D02*
X78700Y-214890D01*
X91780Y-208650D02*
X84940Y-208650D01*
X99020Y-215890D02*
X91780Y-208650D01*
X145013Y-312796D02*
X151981Y-312796D01*
X66040Y-129540D02*
X66040Y-136780D01*
X219755Y-146385D02*
X219755Y-153625D01*
X399160Y-231140D02*
X408940Y-231140D01*
X411480Y-228600D01*
X122110Y-381230D02*
X132080Y-371260D01*
X114870Y-373990D02*
X122110Y-381230D01*
X111950Y-373990D02*
X114870Y-373990D01*
G54D12*
X74930Y-331470D02*
X74930Y-300990D01*
X127000Y-119380D02*
X137160Y-129540D01*
X127000Y-139700D01*
X122470Y-119380D02*
X127000Y-119380D01*
X127000Y-139700D02*
X122470Y-139700D01*
X364490Y-158420D02*
X364490Y-141350D01*
G54D13*
X387350Y-346710D02*
X375920Y-358140D01*
X279400Y-358140D02*
X375920Y-358140D01*
X245110Y-323850D02*
X279400Y-358140D01*
X262890Y-341630D02*
X249300Y-355220D01*
X132080Y-355220D02*
X249300Y-355220D01*
X69850Y-336550D02*
X69850Y-349630D01*
X257810Y-265430D02*
X257810Y-212090D01*
X74930Y-331470D02*
X69850Y-336550D01*
X161150Y-258050D02*
X136130Y-258050D01*
X161150Y-258050D02*
X161150Y-275350D01*
X136130Y-258050D02*
X116840Y-238760D01*
X161150Y-275350D02*
X159640Y-276860D01*
X116840Y-238760D02*
X116840Y-213360D01*
X129860Y-200340D01*
X157480Y-200340D01*
X180020Y-200340D01*
X191160Y-211480D01*
X200360Y-211480D01*
X201690Y-258050D02*
X215900Y-243840D01*
X177150Y-258050D02*
X201690Y-258050D01*
X175640Y-276860D02*
X195580Y-296800D01*
X195580Y-320040D01*
X271400Y-225680D02*
X271400Y-202820D01*
X283210Y-237490D02*
X271400Y-225680D01*
X283210Y-244780D02*
X283210Y-237490D01*
X233680Y-203200D02*
X248920Y-203200D01*
X226360Y-210520D02*
X233680Y-203200D01*
X248920Y-203200D02*
X257810Y-212090D01*
X226360Y-211480D02*
X226360Y-210520D01*
X91440Y-340360D02*
X114300Y-340360D01*
X129013Y-325647D01*
X129013Y-312796D01*
X342520Y-322580D02*
X342520Y-315340D01*
X354000Y-303860D01*
X361950Y-303860D01*
X286640Y-322580D02*
X274320Y-322580D01*
X269240Y-327660D01*
X68280Y-170840D02*
X68280Y-155020D01*
X387350Y-249860D02*
X374650Y-249860D01*
X360680Y-121540D02*
X360680Y-88900D01*
X302640Y-322580D02*
X342520Y-322580D01*
X301880Y-342900D02*
X301880Y-323340D01*
X302640Y-322580D01*
X333120Y-248540D02*
X333120Y-210820D01*
X299720Y-281940D02*
X333120Y-248540D01*
X276860Y-281940D02*
X299720Y-281940D01*
X270510Y-288290D02*
X276860Y-281940D01*
X270510Y-298780D02*
X270510Y-288290D01*
X389890Y-158420D02*
X407720Y-158420D01*
X416560Y-167260D01*
X377190Y-143510D02*
X377190Y-158420D01*
X383160Y-137540D02*
X377190Y-143510D01*
X257810Y-298780D02*
X257810Y-285750D01*
X269240Y-274320D01*
X287020Y-274320D01*
X317120Y-244220D01*
X317120Y-193420D01*
X325120Y-185420D02*
X317120Y-193420D01*
X325120Y-173100D02*
X325120Y-185420D01*
X400050Y-249860D02*
X410540Y-249860D01*
X424560Y-235840D01*
X424560Y-193420D01*
X416560Y-185420D02*
X424560Y-193420D01*
X364490Y-212420D02*
X364490Y-194310D01*
X327280Y-157100D01*
X325120Y-157100D02*
X307720Y-157100D01*
X299720Y-165100D01*
X299720Y-172340D01*
X195580Y-180720D02*
X205360Y-190500D01*
X195580Y-149860D02*
X195580Y-180720D01*
X182880Y-137160D02*
X195580Y-149860D01*
X154940Y-137160D02*
X182880Y-137160D01*
X145980Y-146120D02*
X154940Y-137160D01*
X145980Y-160340D02*
X145980Y-146120D01*
X94280Y-190800D02*
X101600Y-198120D01*
X94280Y-190800D02*
X96820Y-190800D01*
X101600Y-198120D02*
X114300Y-198120D01*
X127000Y-185420D01*
X127000Y-175260D01*
X116840Y-165100D01*
X100020Y-165100D01*
X94280Y-170840D01*
X94280Y-151890D01*
X106470Y-139700D01*
X106470Y-119380D01*
X101600Y-119380D01*
X78740Y-96520D01*
X78740Y-81280D01*
X259080Y-190500D02*
X271400Y-202820D01*
X221360Y-190500D02*
X259080Y-190500D01*
X200360Y-211480D02*
X200360Y-210520D01*
X226360Y-233380D02*
X215900Y-243840D01*
X226360Y-230480D02*
X226360Y-233380D01*
X177150Y-258050D02*
X177150Y-275350D01*
X175640Y-276860D01*
X179360Y-280880D02*
X179360Y-280580D01*
X386080Y-121540D02*
X386080Y-86360D01*
X270510Y-244780D02*
X270510Y-255270D01*
X279400Y-264160D01*
X284480Y-264160D01*
X294640Y-254000D01*
X294640Y-223140D01*
X287400Y-215900D01*
X287400Y-200660D01*
X299720Y-188340D01*
X387350Y-346710D02*
X387350Y-303860D01*
X245110Y-322580D02*
X245110Y-278130D01*
X257810Y-265430D01*
X129160Y-358140D02*
X132080Y-355220D01*
X94360Y-358140D02*
X129160Y-358140D01*
X218665Y-112115D02*
X218665Y-129295D01*
X219755Y-130385D01*
X404800Y-212420D02*
X389890Y-212420D01*
X408560Y-208660D02*
X404800Y-212420D01*
X57630Y-232890D02*
X98020Y-232890D01*
X78700Y-232890D02*
X78700Y-248960D01*
X50800Y-226060D02*
X57630Y-232890D01*
X98020Y-232890D02*
X99020Y-231890D01*
X78700Y-248960D02*
X74930Y-252730D01*
X50800Y-213740D02*
X50800Y-226060D01*
X74930Y-252730D02*
X74930Y-270180D01*
X87630Y-270180D02*
X87630Y-288290D01*
X74930Y-300990D01*
X69850Y-349630D02*
X78360Y-358140D01*
X217570Y-91310D02*
X233170Y-91310D01*
X240920Y-99060D01*
X178420Y-78160D02*
X191570Y-91310D01*
X162560Y-78160D02*
X178420Y-78160D01*
X161560Y-77160D02*
X162560Y-78160D01*
X191570Y-110310D02*
X138250Y-110310D01*
X109220Y-81280D01*
X113340Y-77160D02*
X109220Y-81280D01*
X142240Y-77160D02*
X113340Y-77160D01*
X68280Y-189840D02*
X58700Y-189840D01*
X50800Y-197740D01*
X377190Y-212420D02*
X377190Y-225170D01*
X350520Y-233680D02*
X380620Y-233680D01*
X361950Y-249860D02*
X353700Y-249860D01*
X360350Y-251460D02*
X361950Y-249860D01*
X353700Y-249860D02*
X345440Y-258120D01*
X338780Y-258120D01*
X327660Y-269240D01*
X327660Y-276860D01*
X322580Y-276860D02*
X327660Y-276860D01*
X306960Y-292480D02*
X322580Y-276860D01*
X306960Y-297180D02*
X306960Y-292480D01*
X306960Y-297180D02*
X284810Y-297180D01*
X283210Y-298780D02*
X285420Y-298780D01*
X284810Y-297180D02*
X283210Y-298780D01*
X200360Y-233980D02*
X168320Y-233980D01*
X165480Y-231140D01*
X200360Y-230480D02*
X200360Y-233980D01*
X129540Y-292100D02*
X129540Y-314960D01*
X87630Y-336550D02*
X91440Y-340360D01*
X87630Y-324180D02*
X87630Y-336550D01*
X280626Y-122370D02*
X280626Y-143554D01*
X264610Y-122370D02*
X299946Y-122370D01*
X256920Y-114680D02*
X264610Y-122370D01*
X300946Y-121370D02*
X301710Y-121370D01*
X256920Y-114680D02*
X256920Y-99060D01*
X179550Y-100810D02*
X191570Y-100810D01*
X175260Y-96520D02*
X179550Y-100810D01*
X170180Y-96520D02*
X175260Y-96520D01*
X337820Y-297180D02*
X322960Y-297180D01*
X345440Y-289560D02*
X337820Y-297180D01*
X345440Y-274120D02*
X345440Y-289560D01*
G54D14*
X161150Y-258050D03*
X177150Y-258050D03*
X159640Y-276860D03*
X175640Y-276860D03*
X78360Y-358140D03*
X94360Y-358140D03*
X129013Y-312796D03*
X145013Y-312796D03*
X149480Y-231140D03*
X165480Y-231140D03*
X302640Y-322580D03*
X286640Y-322580D03*
X301880Y-342900D03*
X317880Y-342900D03*
X337440Y-342900D03*
X353440Y-342900D03*
X342520Y-322580D03*
X358520Y-322580D03*
X306960Y-297180D03*
X322960Y-297180D03*
X383160Y-231140D03*
X399160Y-231140D03*
X317120Y-210820D03*
X333120Y-210820D03*
X287400Y-215900D03*
X271400Y-215900D03*
X408560Y-205740D03*
X424560Y-205740D03*
X221360Y-190500D03*
X205360Y-190500D03*
X106470Y-139700D03*
X122470Y-139700D03*
X106470Y-119380D03*
X122470Y-119380D03*
X256920Y-99060D03*
X240920Y-99060D03*
G54D15*
X62230Y-324180D03*
X87630Y-324180D03*
X74930Y-324180D03*
X100330Y-324180D03*
X62230Y-270180D03*
X87630Y-270180D03*
X74930Y-270180D03*
X100330Y-270180D03*
X361950Y-303860D03*
X374650Y-303860D03*
X387350Y-303860D03*
X400050Y-303860D03*
X361950Y-249860D03*
X374650Y-249860D03*
X387350Y-249860D03*
X400050Y-249860D03*
X351790Y-212420D03*
X364490Y-212420D03*
X377190Y-212420D03*
X389890Y-212420D03*
X351790Y-158420D03*
X364490Y-158420D03*
X377190Y-158420D03*
X389890Y-158420D03*
X245110Y-298780D03*
X257810Y-298780D03*
X270510Y-298780D03*
X283210Y-298780D03*
X245110Y-244780D03*
X257810Y-244780D03*
X270510Y-244780D03*
X283210Y-244780D03*
G54D16*
X78700Y-232890D03*
X78700Y-214890D03*
X280626Y-122370D03*
X280626Y-104370D03*
X162560Y-78160D03*
X162560Y-60160D03*
G54D17*
X50800Y-213740D03*
X50800Y-197740D03*
X99020Y-231890D03*
X99020Y-215890D03*
X416560Y-268860D03*
X416560Y-284860D03*
X325120Y-173100D03*
X325120Y-157100D03*
X299720Y-172340D03*
X299720Y-188340D03*
X416560Y-167260D03*
X416560Y-183260D03*
X386080Y-137540D03*
X386080Y-121540D03*
X300946Y-121370D03*
X300946Y-105370D03*
X360680Y-137540D03*
X360680Y-121540D03*
X219755Y-146385D03*
X219755Y-130385D03*
X66040Y-152780D03*
X66040Y-136780D03*
X142240Y-77160D03*
X142240Y-61160D03*
X132080Y-373250D03*
X132080Y-357250D03*
X111950Y-357250D03*
X111950Y-373250D03*
X345440Y-274120D03*
X345440Y-258120D03*
G54D18*
X68280Y-189840D03*
X94280Y-180340D03*
X94280Y-189840D03*
X68280Y-170840D03*
X94280Y-170840D03*
X200360Y-230480D03*
X226360Y-230480D03*
X226360Y-220980D03*
X200360Y-211480D03*
X226360Y-211480D03*
X191570Y-100810D03*
X191570Y-110310D03*
X217570Y-110310D03*
X191570Y-91310D03*
X217570Y-91310D03*
G54D19*
X157480Y-200340D03*
G54D20*
X145980Y-160340D03*
X168980Y-160340D03*
G54D21*
X345440Y-157480D03*
X337820Y-297180D03*
X350520Y-233680D03*
X279400Y-144780D03*
X177800Y-218440D03*
X327660Y-276860D03*
X129540Y-292100D03*
X228600Y-325120D03*
X152237Y-312540D03*
X269240Y-327660D03*
X406400Y-304800D03*
X55880Y-261620D03*
X142240Y-231140D03*
X246380Y-220980D03*
X411480Y-228600D03*
X91400Y-208650D03*
X114300Y-180340D03*
X219755Y-153625D03*
X66040Y-129540D03*
X170180Y-96520D03*
X290786Y-98130D03*
X152400Y-53340D03*
X137160Y-129540D03*
X122110Y-381000D03*

M02*
