M48
METRIC,TZ
VER,1
FMAT,2
DETECT,ON
ATC,ON
T1C0.8000
%
T1
X345440Y-157480
X337820Y-297180
X350520Y-233680
X279400Y-144780
X177800Y-218440
X327660Y-276860
X129540Y-292100
X228600Y-325120
X152237Y-312540
X269240Y-327660
X406400Y-304800
X55880Y-261620
X142240Y-231140
X246380Y-220980
X411480Y-228600
X91400Y-208650
X114300Y-180340
X219755Y-153625
X66040Y-129540
X170180Y-96520
X290786Y-98130
X152400Y-53340
X137160Y-129540
X122110Y-381000
M30
